<?xml version="1.0" encoding="iso-8859-1"?>
<!-- Generator: Adobe Illustrator 16.0.0, SVG Export Plug-In . SVG Version: 6.00 Build 0)  -->
<!DOCTYPE svg PUBLIC "-//W3C//DTD SVG 1.1//EN" "http://www.w3.org/Graphics/SVG/1.1/DTD/svg11.dtd">
<svg version="1.1" id="Layer_1" xmlns="http://www.w3.org/2000/svg" xmlns:xlink="http://www.w3.org/1999/xlink" x="0px" y="0px"
	 width="612px" height="792px" viewBox="0 0 612 792" style="enable-background:new 0 0 612 792;" xml:space="preserve">
<path style="fill:#E23E57;" d="M306,702C137.7,702,0,564.3,0,396S137.7,90,306,90s306,137.7,306,306S474.3,702,306,702z M306,141
	C165.75,141,51,255.75,51,396s114.75,255,255,255s255-114.75,255-255S446.25,141,306,141z M408,523.5c-7.65,0-12.75-2.55-17.85-7.65
	l-102-102c-2.55-2.55-5.1-5.1-5.1-7.649c-2.55-2.55-2.55-7.65-2.55-10.2V217.5c0-15.3,10.2-25.5,25.5-25.5s25.5,10.2,25.5,25.5
	v168.3l94.35,94.351c10.2,10.199,10.2,25.5,0,35.699C420.75,520.95,415.65,523.5,408,523.5z"/>
</svg>
