<?xml version="1.0" encoding="iso-8859-1"?>
<!-- Generator: Adobe Illustrator 16.0.0, SVG Export Plug-In . SVG Version: 6.00 Build 0)  -->
<!DOCTYPE svg PUBLIC "-//W3C//DTD SVG 1.1//EN" "http://www.w3.org/Graphics/SVG/1.1/DTD/svg11.dtd">
<svg version="1.1" id="Layer_1" xmlns="http://www.w3.org/2000/svg" xmlns:xlink="http://www.w3.org/1999/xlink" x="0px" y="0px"
	 width="24px" height="27px" viewBox="0 0 24 27" style="enable-background:new 0 0 24 27;" xml:space="preserve">
<path style="fill:#E23E57;" d="M7,8h10c0.553,0,1,0.448,1,1l0,0c0,0.552-0.447,1-1,1H7c-0.552,0-1-0.448-1-1l0,0
	C6,8.448,6.448,8,7,8z"/>
<path style="fill:#E23E57;" d="M7,13h10c0.553,0,1,0.448,1,1l0,0c0,0.553-0.447,1-1,1H7c-0.552,0-1-0.447-1-1l0,0
	C6,13.448,6.448,13,7,13z"/>
<path style="fill:#E23E57;" d="M7,18h10c0.553,0,1,0.447,1,1l0,0c0,0.553-0.447,1-1,1H7c-0.552,0-1-0.447-1-1l0,0
	C6,18.447,6.448,18,7,18z"/>
<path style="fill:none;stroke:#E23E57;stroke-width:2;" d="M4,1h16c0.553,0,1,0.448,1,1v22c0,0.553-0.447,1-1,1H4
	c-0.552,0-1-0.447-1-1V2C3,1.448,3.448,1,4,1z"/>
</svg>
